<svg width="35" height="35" xmlns="http://www.w3.org/2000/svg" xmlns:xlink="http://www.w3.org/1999/xlink" xml:space="preserve" overflow="hidden"><g transform="matrix(1 0 0 1 0 -8)"><path d="M29.5312 35.3438 29.5312 14.5625 21.875 14.5625 21.875 19.6667 16.0417 19.6667 16.0417 15.2917 9.84375 15.2917 9.84375 13.1042 5.46875 13.1042 5.46875 35.3438 5.10417 35.3438 5.10417 37.8958 29.8958 37.8958 29.8958 35.3438ZM22.6042 15.2917 28.8021 15.2917 28.8021 17.8438 22.6042 17.8438ZM22.6042 19.6667 22.6042 18.5729 28.8021 18.5729 28.8021 30.9688 22.6042 30.9688ZM28.8021 31.6979 28.8021 35.3438 22.6042 35.3438 22.6042 31.6979ZM21.875 20.3958 21.875 35.3438 16.0417 35.3438 16.0417 20.3958ZM15.3125 16.0208 15.3125 35.3438 9.84375 35.3438 9.84375 16.0208ZM6.19792 13.8333 9.11458 13.8333 9.11458 35.3438 6.19792 35.3438ZM29.1667 37.1667 5.83333 37.1667 5.83333 36.0729 29.1667 36.0729Z" stroke="#000000" stroke-width="1.09375"/><path d="M13.8542 17.4792 11.3021 17.4792 11.3021 20.0312 13.8542 20.0312ZM13.125 19.3021 12.0312 19.3021 12.0312 18.2083 13.125 18.2083Z" stroke="#000000" stroke-width="1.09375"/><path d="M19.6875 23.3125C19.6875 23.7152 19.361 24.0417 18.9583 24.0417 18.5556 24.0417 18.2292 23.7152 18.2292 23.3125 18.2292 22.9098 18.5556 22.5833 18.9583 22.5833 19.361 22.5833 19.6875 22.9098 19.6875 23.3125Z" stroke="#000000" stroke-width="1.09375"/><path d="M19.6875 31.6979C19.6875 32.1006 19.361 32.4271 18.9583 32.4271 18.5556 32.4271 18.2292 32.1006 18.2292 31.6979 18.2292 31.2952 18.5556 30.9688 18.9583 30.9688 19.361 30.9688 19.6875 31.2952 19.6875 31.6979Z" stroke="#000000" stroke-width="1.09375"/></g></svg>