<svg width="49" height="49" xmlns="http://www.w3.org/2000/svg" xmlns:xlink="http://www.w3.org/1999/xlink" xml:space="preserve" overflow="hidden"><g><path d="M38.7917 16.3333 38.7917 20.4167 34.7083 20.4167 34.7083 16.3333 38.7917 16.3333ZM10.2083 34.7083 14.2917 34.7083 14.2917 38.7917 10.2083 38.7917 10.2083 34.7083ZM20.4167 16.3333 20.4167 20.4167 16.3333 20.4167 16.3333 16.3333 20.4167 16.3333ZM26.5417 16.3333 26.5417 20.4167 22.4583 20.4167 22.4583 16.3333 26.5417 16.3333ZM32.6667 26.5417 28.5833 26.5417 28.5833 22.4583 32.6667 22.4583 32.6667 26.5417ZM34.7083 26.5417 34.7083 22.4583 38.7917 22.4583 38.7917 26.5417 34.7083 26.5417ZM34.7083 32.6667 34.7083 28.5833 38.7917 28.5833 38.7917 32.6667 34.7083 32.6667ZM22.4583 34.7083 26.5417 34.7083 26.5417 38.7917 22.4583 38.7917 22.4583 34.7083ZM20.4167 34.7083 20.4167 38.7917 16.3333 38.7917 16.3333 34.7083 20.4167 34.7083ZM16.3333 28.5833 20.4167 28.5833 20.4167 32.6667 16.3333 32.6667 16.3333 28.5833ZM14.2917 28.5833 14.2917 32.6667 10.2083 32.6667 10.2083 28.5833 14.2917 28.5833ZM14.2917 22.4583 14.2917 26.5417 10.2083 26.5417 10.2083 22.4583 14.2917 22.4583ZM20.4167 26.5417 16.3333 26.5417 16.3333 22.4583 20.4167 22.4583 20.4167 26.5417ZM22.4583 26.5417 22.4583 22.4583 26.5417 22.4583 26.5417 26.5417 22.4583 26.5417ZM26.5417 32.6667 22.4583 32.6667 22.4583 28.5833 26.5417 28.5833 26.5417 32.6667ZM28.5833 32.6667 28.5833 28.5833 32.6667 28.5833 32.6667 32.6667 28.5833 32.6667ZM32.6667 16.3333 32.6667 20.4167 28.5833 20.4167 28.5833 16.3333 32.6667 16.3333ZM7.14583 13.2708 7.14583 41.8542 41.8542 41.8542 41.8542 13.2708 7.14583 13.2708Z"/><path d="M7.14583 7.14583 41.8542 7.14583 41.8542 11.2292 7.14583 11.2292Z"/></g></svg>